<?xml version="1.0" encoding="utf-8"?>
<!-- Generator: Adobe Illustrator 18.0.0, SVG Export Plug-In . SVG Version: 6.00 Build 0)  -->
<!DOCTYPE svg PUBLIC "-//W3C//DTD SVG 1.1//EN" "http://www.w3.org/Graphics/SVG/1.1/DTD/svg11.dtd">
<svg version="1.1" id="Layer_1" xmlns="http://www.w3.org/2000/svg" xmlns:xlink="http://www.w3.org/1999/xlink" x="0px" y="0px"
	 width="800px" height="600px" viewBox="0 0 800 600" enable-background="new 0 0 800 600" xml:space="preserve">
<g>
	<linearGradient id="SVGID_1_" gradientUnits="userSpaceOnUse" x1="1.6107" y1="598.2314" x2="801.0707" y2="-0.2387">
		<stop  offset="0" style="stop-color:#92278F"/>
		<stop  offset="1" style="stop-color:#262262"/>
	</linearGradient>
	<rect fill="url(#SVGID_1_)" width="800" height="600"/>
	<g>
		<defs>
			<rect id="SVGID_2_" width="800" height="600"/>
		</defs>
		<clipPath id="SVGID_3_">
			<use xlink:href="#SVGID_2_"  overflow="visible"/>
		</clipPath>
		<g clip-path="url(#SVGID_3_)">
			
				<linearGradient id="SVGID_4_" gradientUnits="userSpaceOnUse" x1="282.5605" y1="722.2166" x2="438.8037" y2="605.254" gradientTransform="matrix(0.7071 0.7071 -0.7071 0.7071 359.0391 -379.6943)">
				<stop  offset="0" style="stop-color:#EE2A7B"/>
				<stop  offset="1" style="stop-color:#92278F;stop-opacity:0"/>
			</linearGradient>
			<path fill="url(#SVGID_4_)" d="M252.6,231.1L30.9,452.9c-1.5,1.5-1.5,3.8,0,5.3l0,0c1.5,1.5,3.8,1.5,5.3,0L258,236.4
				c1.5-1.5,1.5-3.8,0-5.3l0,0C256.5,229.6,254.1,229.6,252.6,231.1z"/>
			
				<linearGradient id="SVGID_5_" gradientUnits="userSpaceOnUse" x1="663.9353" y1="406.1556" x2="820.1785" y2="289.1931" gradientTransform="matrix(0.7071 0.7071 -0.7071 0.7071 359.0391 -379.6943)">
				<stop  offset="0" style="stop-color:#EE2A7B"/>
				<stop  offset="1" style="stop-color:#262262;stop-opacity:0"/>
			</linearGradient>
			<path fill="url(#SVGID_5_)" d="M745.8,277.3L524.1,499c-1.5,1.5-1.5,3.8,0,5.3l0,0c1.5,1.5,3.8,1.5,5.3,0l221.8-221.8
				c1.5-1.5,1.5-3.8,0-5.3l0,0C749.6,275.8,747.3,275.8,745.8,277.3z"/>
			
				<linearGradient id="SVGID_6_" gradientUnits="userSpaceOnUse" x1="61.9176" y1="595.3509" x2="218.1608" y2="478.3884" gradientTransform="matrix(0.7071 0.7071 -0.7071 0.7071 359.0391 -379.6943)">
				<stop  offset="0" style="stop-color:#EE2A7B"/>
				<stop  offset="1" style="stop-color:#262262;stop-opacity:0"/>
			</linearGradient>
			<path fill="url(#SVGID_6_)" d="M186.3-14.6L-35.4,207.1c-1.5,1.5-1.5,3.8,0,5.3l0,0c1.5,1.5,3.8,1.5,5.3,0L191.6-9.3
				c1.5-1.5,1.5-3.8,0-5.3v0C190.2-16.1,187.8-16.1,186.3-14.6z"/>
			
				<linearGradient id="SVGID_7_" gradientUnits="userSpaceOnUse" x1="127.2678" y1="591.927" x2="231.8456" y2="513.6408" gradientTransform="matrix(0.7071 0.7071 -0.7071 0.7071 359.0391 -379.6943)">
				<stop  offset="0" style="stop-color:#EE2A7B"/>
				<stop  offset="1" style="stop-color:#262262;stop-opacity:0"/>
			</linearGradient>
			<path fill="url(#SVGID_7_)" d="M153.6,65.6L22.4,196.8c-3.8,3.8-3.8,10,0,13.8l0,0c3.8,3.8,10,3.8,13.8,0L167.5,79.4
				c3.8-3.8,3.8-10,0-13.8l0,0C163.6,61.7,157.5,61.7,153.6,65.6z"/>
			
				<linearGradient id="SVGID_8_" gradientUnits="userSpaceOnUse" x1="24.2381" y1="464.9359" x2="128.8159" y2="386.6497" gradientTransform="matrix(0.7071 0.7071 -0.7071 0.7071 359.0391 -379.6943)">
				<stop  offset="0" style="stop-color:#92278F"/>
				<stop  offset="1" style="stop-color:#262262;stop-opacity:0"/>
			</linearGradient>
			<path fill="url(#SVGID_8_)" d="M170.6-97.1L39.3,34.2c-3.8,3.8-3.8,10,0,13.8l0,0c3.8,3.8,10,3.8,13.8,0L184.4-83.3
				c3.8-3.8,3.8-10,0-13.8l0,0C180.6-100.9,174.4-100.9,170.6-97.1z"/>
			
				<linearGradient id="SVGID_9_" gradientUnits="userSpaceOnUse" x1="423.5226" y1="749.8318" x2="528.1003" y2="671.5457" gradientTransform="matrix(0.7071 0.7071 -0.7071 0.7071 359.0391 -379.6943)">
				<stop  offset="0" style="stop-color:#EE2A7B"/>
				<stop  offset="1" style="stop-color:#92278F;stop-opacity:0"/>
			</linearGradient>
			<path fill="url(#SVGID_9_)" d="M251.5,386.7L120.2,518c-3.8,3.8-3.8,10,0,13.8l0,0c3.8,3.8,10,3.8,13.8,0l131.3-131.3
				c3.8-3.8,3.8-10,0-13.8l0,0C261.5,382.9,255.3,382.9,251.5,386.7z"/>
			
				<linearGradient id="SVGID_10_" gradientUnits="userSpaceOnUse" x1="631.2683" y1="181.9911" x2="735.8461" y2="103.7049" gradientTransform="matrix(0.7071 0.7071 -0.7071 0.7071 359.0391 -379.6943)">
				<stop  offset="0" style="stop-color:#92278F"/>
				<stop  offset="1" style="stop-color:#262262;stop-opacity:0"/>
			</linearGradient>
			<path fill="url(#SVGID_10_)" d="M799.9,132.1L668.6,263.4c-3.8,3.8-3.8,10,0,13.8l0,0c3.8,3.8,10,3.8,13.8,0l131.3-131.3
				c3.8-3.8,3.8-10,0-13.8l0,0C809.9,128.3,803.7,128.3,799.9,132.1z"/>
			
				<linearGradient id="SVGID_11_" gradientUnits="userSpaceOnUse" x1="218.9292" y1="766.2781" x2="323.507" y2="687.9919" gradientTransform="matrix(0.7071 0.7071 -0.7071 0.7071 359.0391 -379.6943)">
				<stop  offset="0" style="stop-color:#662D91"/>
				<stop  offset="1" style="stop-color:#92278F;stop-opacity:0"/>
			</linearGradient>
			<path fill="url(#SVGID_11_)" d="M95.2,253.7L-36.1,384.9c-3.8,3.8-3.8,10,0,13.8l0,0c3.8,3.8,10,3.8,13.8,0L109,267.5
				c3.8-3.8,3.8-10,0-13.8l0,0C105.2,249.8,99,249.8,95.2,253.7z"/>
			
				<linearGradient id="SVGID_12_" gradientUnits="userSpaceOnUse" x1="737.0928" y1="527.1646" x2="893.3359" y2="410.2021" gradientTransform="matrix(0.7071 0.7071 -0.7071 0.7071 359.0391 -379.6943)">
				<stop  offset="0" style="stop-color:#EE2A7B"/>
				<stop  offset="1" style="stop-color:#262262;stop-opacity:0"/>
			</linearGradient>
			<path fill="url(#SVGID_12_)" d="M712,414.6L490.2,636.3c-1.5,1.5-1.5,3.8,0,5.3h0c1.5,1.5,3.8,1.5,5.3,0l221.8-221.8
				c1.5-1.5,1.5-3.8,0-5.3h0C715.8,413.1,713.4,413.1,712,414.6z"/>
			
				<linearGradient id="SVGID_13_" gradientUnits="userSpaceOnUse" x1="308.632" y1="257.6706" x2="464.8751" y2="140.7081" gradientTransform="matrix(0.7071 0.7071 -0.7071 0.7071 359.0391 -379.6943)">
				<stop  offset="0" style="stop-color:#EE2A7B"/>
				<stop  offset="1" style="stop-color:#262262;stop-opacity:0"/>
			</linearGradient>
			<path fill="url(#SVGID_13_)" d="M599.6-78.9L377.8,142.8c-1.5,1.5-1.5,3.8,0,5.3v0c1.5,1.5,3.8,1.5,5.3,0L604.9-73.6
				c1.5-1.5,1.5-3.8,0-5.3v0C603.4-80.4,601-80.4,599.6-78.9z"/>
			
				<linearGradient id="SVGID_14_" gradientUnits="userSpaceOnUse" x1="177.608" y1="479.6605" x2="333.8511" y2="362.698" gradientTransform="matrix(0.7071 0.7071 -0.7071 0.7071 359.0391 -379.6943)">
				<stop  offset="0" style="stop-color:#EE2A7B"/>
				<stop  offset="1" style="stop-color:#262262;stop-opacity:0"/>
			</linearGradient>
			<path fill="url(#SVGID_14_)" d="M349.9-14.6L128.2,207.1c-1.5,1.5-1.5,3.8,0,5.3l0,0c1.5,1.5,3.8,1.5,5.3,0L355.3-9.3
				c1.5-1.5,1.5-3.8,0-5.3v0C353.8-16.1,351.4-16.1,349.9-14.6z"/>
			
				<linearGradient id="SVGID_15_" gradientUnits="userSpaceOnUse" x1="219.8225" y1="784.9546" x2="376.0656" y2="667.9921" gradientTransform="matrix(0.7071 0.7071 -0.7071 0.7071 359.0391 -379.6943)">
				<stop  offset="0" style="stop-color:#662D91"/>
				<stop  offset="1" style="stop-color:#92278F;stop-opacity:0"/>
			</linearGradient>
			<path fill="url(#SVGID_15_)" d="M163.9,231.1L-57.8,452.9c-1.5,1.5-1.5,3.8,0,5.3h0c1.5,1.5,3.8,1.5,5.3,0l221.8-221.8
				c1.5-1.5,1.5-3.8,0-5.3v0C167.8,229.6,165.4,229.6,163.9,231.1z"/>
			
				<linearGradient id="SVGID_16_" gradientUnits="userSpaceOnUse" x1="357.2961" y1="906.9614" x2="513.5392" y2="789.9988" gradientTransform="matrix(0.7071 0.7071 -0.7071 0.7071 359.0391 -379.6943)">
				<stop  offset="0" style="stop-color:#EE2A7B"/>
				<stop  offset="1" style="stop-color:#92278F;stop-opacity:0"/>
			</linearGradient>
			<path fill="url(#SVGID_16_)" d="M174.9,414.6L-46.9,636.3c-1.5,1.5-1.5,3.8,0,5.3h0c1.5,1.5,3.8,1.5,5.3,0l221.8-221.8
				c1.5-1.5,1.5-3.8,0-5.3l0,0C178.7,413.1,176.3,413.1,174.9,414.6z"/>
			
				<linearGradient id="SVGID_17_" gradientUnits="userSpaceOnUse" x1="-29.2347" y1="618.587" x2="127.0085" y2="501.6245" gradientTransform="matrix(0.7071 0.7071 -0.7071 0.7071 359.0391 -379.6943)">
				<stop  offset="0" style="stop-color:#EE2A7B"/>
				<stop  offset="1" style="stop-color:#92278F;stop-opacity:0"/>
			</linearGradient>
			<path fill="url(#SVGID_17_)" d="M105.5-62.6l-221.8,221.8c-1.5,1.5-1.5,3.8,0,5.3h0c1.5,1.5,3.8,1.5,5.3,0L110.8-57.3
				c1.5-1.5,1.5-3.8,0-5.3l0,0C109.3-64.1,106.9-64.1,105.5-62.6z"/>
			
				<linearGradient id="SVGID_18_" gradientUnits="userSpaceOnUse" x1="280.0938" y1="420.0418" x2="436.337" y2="303.0793" gradientTransform="matrix(0.7071 0.7071 -0.7071 0.7071 359.0391 -379.6943)">
				<stop  offset="0" style="stop-color:#EE2A7B"/>
				<stop  offset="1" style="stop-color:#262262;stop-opacity:0"/>
			</linearGradient>
			<path fill="url(#SVGID_18_)" d="M464.6,15.7L242.8,237.4c-1.5,1.5-1.5,3.8,0,5.3h0c1.5,1.5,3.8,1.5,5.3,0L469.9,21
				c1.5-1.5,1.5-3.8,0-5.3v0C468.4,14.2,466,14.2,464.6,15.7z"/>
			
				<linearGradient id="SVGID_19_" gradientUnits="userSpaceOnUse" x1="509.4657" y1="170.0332" x2="665.7089" y2="53.0707" gradientTransform="matrix(0.7071 0.7071 -0.7071 0.7071 359.0391 -379.6943)">
				<stop  offset="0" style="stop-color:#92278F"/>
				<stop  offset="1" style="stop-color:#262262;stop-opacity:0"/>
			</linearGradient>
			<path fill="url(#SVGID_19_)" d="M803.5,1.1L581.8,222.8c-1.5,1.5-1.5,3.8,0,5.3l0,0c1.5,1.5,3.8,1.5,5.3,0L808.8,6.4
				c1.5-1.5,1.5-3.8,0-5.3v0C807.4-0.4,805-0.4,803.5,1.1z"/>
			
				<linearGradient id="SVGID_20_" gradientUnits="userSpaceOnUse" x1="851.3689" y1="422.1638" x2="1007.6121" y2="305.2014" gradientTransform="matrix(0.7071 0.7071 -0.7071 0.7071 359.0391 -379.6943)">
				<stop  offset="0" style="stop-color:#92278F"/>
				<stop  offset="1" style="stop-color:#262262;stop-opacity:0"/>
			</linearGradient>
			<path fill="url(#SVGID_20_)" d="M867,421.1L645.3,642.9c-1.5,1.5-1.5,3.8,0,5.3l0,0c1.5,1.5,3.8,1.5,5.3,0l221.8-221.8
				c1.5-1.5,1.5-3.8,0-5.3l0,0C870.9,419.7,868.5,419.7,867,421.1z"/>
			
				<linearGradient id="SVGID_21_" gradientUnits="userSpaceOnUse" x1="769.4572" y1="397.4244" x2="925.7004" y2="280.4619" gradientTransform="matrix(0.7071 0.7071 -0.7071 0.7071 359.0391 -379.6943)">
				<stop  offset="0" style="stop-color:#92278F"/>
				<stop  offset="1" style="stop-color:#262262;stop-opacity:0"/>
			</linearGradient>
			<path fill="url(#SVGID_21_)" d="M826.6,345.7L604.8,567.5c-1.5,1.5-1.5,3.8,0,5.3l0,0c1.5,1.5,3.8,1.5,5.3,0L831.9,351
				c1.5-1.5,1.5-3.8,0-5.3l0,0C830.4,344.3,828.1,344.3,826.6,345.7z"/>
			
				<linearGradient id="SVGID_22_" gradientUnits="userSpaceOnUse" x1="551.0648" y1="722.6627" x2="707.308" y2="605.7002" gradientTransform="matrix(0.7071 0.7071 -0.7071 0.7071 359.0391 -379.6943)">
				<stop  offset="0" style="stop-color:#662D91"/>
				<stop  offset="1" style="stop-color:#92278F;stop-opacity:0"/>
			</linearGradient>
			<path fill="url(#SVGID_22_)" d="M442.2,421.3L220.4,643c-1.5,1.5-1.5,3.8,0,5.3h0c1.5,1.5,3.8,1.5,5.3,0l221.8-221.8
				c1.5-1.5,1.5-3.8,0-5.3l0,0C446,419.8,443.7,419.8,442.2,421.3z"/>
			
				<linearGradient id="SVGID_23_" gradientUnits="userSpaceOnUse" x1="683.9174" y1="320.8597" x2="840.1605" y2="203.8972" gradientTransform="matrix(0.7071 0.7071 -0.7071 0.7071 359.0391 -379.6943)">
				<stop  offset="0" style="stop-color:#EE2A7B"/>
				<stop  offset="1" style="stop-color:#262262;stop-opacity:0"/>
			</linearGradient>
			<path fill="url(#SVGID_23_)" d="M820.3,231.1L598.5,452.9c-1.5,1.5-1.5,3.8,0,5.3v0c1.5,1.5,3.8,1.5,5.3,0l221.8-221.8
				c1.5-1.5,1.5-3.8,0-5.3v0C824.1,229.6,821.7,229.6,820.3,231.1z"/>
			
				<linearGradient id="SVGID_24_" gradientUnits="userSpaceOnUse" x1="503.5842" y1="581.8014" x2="659.8274" y2="464.8389" gradientTransform="matrix(0.7071 0.7071 -0.7071 0.7071 359.0391 -379.6943)">
				<stop  offset="0" style="stop-color:#EE2A7B"/>
				<stop  offset="1" style="stop-color:#262262;stop-opacity:0"/>
			</linearGradient>
			<path fill="url(#SVGID_24_)" d="M508.2,288.1L286.5,509.9c-1.5,1.5-1.5,3.8,0,5.3l0,0c1.5,1.5,3.8,1.5,5.3,0l221.8-221.8
				c1.5-1.5,1.5-3.8,0-5.3l0,0C512.1,286.6,509.7,286.6,508.2,288.1z"/>
			<linearGradient id="SVGID_25_" gradientUnits="userSpaceOnUse" x1="267.0091" y1="432.9908" x2="619.4933" y2="80.5067">
				<stop  offset="0" style="stop-color:#262262"/>
				<stop  offset="0.5" style="stop-color:#662D91"/>
				<stop  offset="1" style="stop-color:#92278F"/>
			</linearGradient>
			<circle fill="url(#SVGID_25_)" cx="400" cy="300" r="190.5"/>
			
				<linearGradient id="SVGID_26_" gradientUnits="userSpaceOnUse" x1="364.6041" y1="335.5316" x2="520.8472" y2="218.5691" gradientTransform="matrix(0.7071 0.7071 -0.7071 0.7071 359.0391 -379.6943)">
				<stop  offset="0" style="stop-color:#92278F"/>
				<stop  offset="1" style="stop-color:#262262;stop-opacity:0"/>
			</linearGradient>
			<path fill="url(#SVGID_26_)" d="M584.1,15.7L362.3,237.4c-1.5,1.5-1.5,3.8,0,5.3l0,0c1.5,1.5,3.8,1.5,5.3,0L589.4,21
				c1.5-1.5,1.5-3.8,0-5.3l0,0C587.9,14.2,585.6,14.2,584.1,15.7z"/>
			
				<linearGradient id="SVGID_27_" gradientUnits="userSpaceOnUse" x1="480.6925" y1="108.6598" x2="636.9357" y2="-8.3027" gradientTransform="matrix(0.7071 0.7071 -0.7071 0.7071 359.0391 -379.6943)">
				<stop  offset="0" style="stop-color:#EE2A7B"/>
				<stop  offset="1" style="stop-color:#262262;stop-opacity:0"/>
			</linearGradient>
			<path fill="url(#SVGID_27_)" d="M826.6-62.6L604.8,159.1c-1.5,1.5-1.5,3.8,0,5.3l0,0c1.5,1.5,3.8,1.5,5.3,0L831.9-57.3
				c1.5-1.5,1.5-3.8,0-5.3l0,0C830.4-64.1,828.1-64.1,826.6-62.6z"/>
			
				<linearGradient id="SVGID_28_" gradientUnits="userSpaceOnUse" x1="231.475" y1="240.9683" x2="387.7182" y2="124.0058" gradientTransform="matrix(0.7071 0.7071 -0.7071 0.7071 359.0391 -379.6943)">
				<stop  offset="0" style="stop-color:#92278F"/>
				<stop  offset="1" style="stop-color:#262262;stop-opacity:0"/>
			</linearGradient>
			<path fill="url(#SVGID_28_)" d="M556.8-145.3L335.1,76.4c-1.5,1.5-1.5,3.8,0,5.3v0c1.5,1.5,3.8,1.5,5.3,0L562.1-140
				c1.5-1.5,1.5-3.8,0-5.3h0C560.7-146.8,558.3-146.8,556.8-145.3z"/>
			
				<linearGradient id="SVGID_29_" gradientUnits="userSpaceOnUse" x1="582.975" y1="346.7787" x2="687.5529" y2="268.4925" gradientTransform="matrix(0.7071 0.7071 -0.7071 0.7071 359.0391 -379.6943)">
				<stop  offset="0" style="stop-color:#EE2A7B"/>
				<stop  offset="1" style="stop-color:#262262;stop-opacity:0"/>
			</linearGradient>
			<path fill="url(#SVGID_29_)" d="M649.2,214.5L517.9,345.7c-3.8,3.8-3.8,10,0,13.8h0c3.8,3.8,10,3.8,13.8,0L663,228.3
				c3.8-3.8,3.8-10,0-13.8l0,0C659.2,210.6,653,210.6,649.2,214.5z"/>
			
				<linearGradient id="SVGID_30_" gradientUnits="userSpaceOnUse" x1="292.44" y1="556.7052" x2="397.0178" y2="478.419" gradientTransform="matrix(0.7071 0.7071 -0.7071 0.7071 359.0391 -379.6943)">
				<stop  offset="0" style="stop-color:#EE2A7B"/>
				<stop  offset="1" style="stop-color:#92278F;stop-opacity:0"/>
			</linearGradient>
			<path fill="url(#SVGID_30_)" d="M295.3,157.5L164.1,288.7c-3.8,3.8-3.8,10,0,13.8l0,0c3.8,3.8,10,3.8,13.8,0l131.3-131.3
				c3.8-3.8,3.8-10,0-13.8v0C305.3,153.6,299.2,153.6,295.3,157.5z"/>
			
				<linearGradient id="SVGID_31_" gradientUnits="userSpaceOnUse" x1="806.6782" y1="357.4009" x2="911.2559" y2="279.1147" gradientTransform="matrix(0.7071 0.7071 -0.7071 0.7071 359.0391 -379.6943)">
				<stop  offset="0" style="stop-color:#EE2A7B"/>
				<stop  offset="1" style="stop-color:#262262;stop-opacity:0"/>
			</linearGradient>
			<path fill="url(#SVGID_31_)" d="M799.9,380.1L668.6,511.4c-3.8,3.8-3.8,10,0,13.8l0,0c3.8,3.8,10,3.8,13.8,0L813.7,394
				c3.8-3.8,3.8-10,0-13.8l0,0C809.9,376.3,803.7,376.3,799.9,380.1z"/>
			
				<linearGradient id="SVGID_32_" gradientUnits="userSpaceOnUse" x1="638.7333" y1="733.6619" x2="743.3111" y2="655.3757" gradientTransform="matrix(0.7071 0.7071 -0.7071 0.7071 359.0391 -379.6943)">
				<stop  offset="0" style="stop-color:#EE2A7B"/>
				<stop  offset="1" style="stop-color:#262262;stop-opacity:0"/>
			</linearGradient>
			<path fill="url(#SVGID_32_)" d="M415.1,527.5L283.8,658.7c-3.8,3.8-3.8,10,0,13.8v0c3.8,3.8,10,3.8,13.8,0l131.3-131.3
				c3.8-3.8,3.8-10,0-13.8h0C425.1,523.6,418.9,523.6,415.1,527.5z"/>
			
				<linearGradient id="SVGID_33_" gradientUnits="userSpaceOnUse" x1="468.732" y1="811.2734" x2="573.3098" y2="732.9872" gradientTransform="matrix(0.7071 0.7071 -0.7071 0.7071 359.0391 -379.6943)">
				<stop  offset="0" style="stop-color:#662D91"/>
				<stop  offset="1" style="stop-color:#92278F;stop-opacity:0"/>
			</linearGradient>
			<path fill="url(#SVGID_33_)" d="M240,462.1L108.7,593.4c-3.8,3.8-3.8,10,0,13.8l0,0c3.8,3.8,10,3.8,13.8,0l131.3-131.3
				c3.8-3.8,3.8-10,0-13.8h0C250,458.3,243.8,458.3,240,462.1z"/>
			
				<linearGradient id="SVGID_34_" gradientUnits="userSpaceOnUse" x1="377.3604" y1="179.7298" x2="481.9382" y2="101.4436" gradientTransform="matrix(0.7071 0.7071 -0.7071 0.7071 359.0391 -379.6943)">
				<stop  offset="0" style="stop-color:#662D91"/>
				<stop  offset="1" style="stop-color:#262262;stop-opacity:0"/>
			</linearGradient>
			<path fill="url(#SVGID_34_)" d="M621.9-49.1L490.7,82.2c-3.8,3.8-3.8,10,0,13.8v0c3.8,3.8,10,3.8,13.8,0L635.8-35.2
				c3.8-3.8,3.8-10,0-13.8v0C632-52.9,625.8-52.9,621.9-49.1z"/>
			
				<linearGradient id="SVGID_35_" gradientUnits="userSpaceOnUse" x1="672.252" y1="287.8003" x2="776.8298" y2="209.5141" gradientTransform="matrix(0.7071 0.7071 -0.7071 0.7071 359.0391 -379.6943)">
				<stop  offset="0" style="stop-color:#662D91"/>
				<stop  offset="1" style="stop-color:#262262;stop-opacity:0"/>
			</linearGradient>
			<path fill="url(#SVGID_35_)" d="M754,235.9L622.8,367.2c-3.8,3.8-3.8,10,0,13.8l0,0c3.8,3.8,10,3.8,13.8,0l131.3-131.3
				c3.8-3.8,3.8-10,0-13.8v0C764.1,232.1,757.9,232.1,754,235.9z"/>
			
				<linearGradient id="SVGID_36_" gradientUnits="userSpaceOnUse" x1="912.7588" y1="447.8552" x2="1017.3366" y2="369.569" gradientTransform="matrix(0.7071 0.7071 -0.7071 0.7071 359.0391 -379.6943)">
				<stop  offset="0" style="stop-color:#EE2A7B"/>
				<stop  offset="1" style="stop-color:#262262;stop-opacity:0"/>
			</linearGradient>
			<path fill="url(#SVGID_36_)" d="M810.9,519.1L679.7,650.4c-3.8,3.8-3.8,10,0,13.8h0c3.8,3.8,10,3.8,13.8,0l131.3-131.3
				c3.8-3.8,3.8-10,0-13.8l0,0C820.9,515.3,814.8,515.3,810.9,519.1z"/>
		</g>
	</g>
</g>
</svg>
